<svg id="Слой_1" data-name="Слой 1" xmlns="http://www.w3.org/2000/svg" viewBox="0 0 363.39 131.91"><defs><style>.cls-1{fill:#5a6eb1;}.cls-2{fill:#c04c43;}.cls-3{fill:#3f6367;}.cls-4{fill:#fff;stroke:#aaabae;}.cls-5{fill:#8d8f91;}</style></defs><title>logo</title><path class="cls-1" d="M73.68,127.45h31.63c3.63-12.92,6.29-40.62,10.13-82.5-4.71,13.11-15.55,27.8-15.55,27.8S89.74,110.88,73.68,127.45Z"/><path class="cls-2" d="M125.25,0c0,7.66-3.28,27.29-6.06,34l-5.55,93.42h11.79Z"/><path class="cls-3" d="M157,51.66v9.19h-1.21a4.82,4.82,0,0,0-.79-3,3.16,3.16,0,0,0-2.68-1h-2.74v9A4,4,0,0,0,150,68a1.92,1.92,0,0,0,1.22.85,13.62,13.62,0,0,0,2.37.23v1.29h-12V69.09a13.85,13.85,0,0,0,2.41-.23,1.82,1.82,0,0,0,1.19-.84,4.1,4.1,0,0,0,.44-2.16V48a4,4,0,0,0-.45-2.16A1.92,1.92,0,0,0,144,45a13.76,13.76,0,0,0-2.38-.23V43.44h19.69L162,50h-1.21a12.64,12.64,0,0,0-1.07-2.71,4.61,4.61,0,0,0-4.33-2.45h-5.81V55.45h3q3.22,0,3.23-3.79Z"/><path class="cls-3" d="M174.74,70.38h-12.1V69.09a14,14,0,0,0,2.41-.23,1.85,1.85,0,0,0,1.19-.84,4.12,4.12,0,0,0,.43-2.16V48a4.12,4.12,0,0,0-.43-2.16,1.85,1.85,0,0,0-1.19-.84,14,14,0,0,0-2.41-.23V43.44h12.1v1.29a6.52,6.52,0,0,0-3.06.56,1.42,1.42,0,0,0-.8,1,7.19,7.19,0,0,0-.17,1.7v17.9a4.06,4.06,0,0,0,.44,2.15,1.9,1.9,0,0,0,1.21.85,13.76,13.76,0,0,0,2.38.23Z"/><path class="cls-3" d="M184.1,43.44l13.15,18.23a19,19,0,0,1,1.53,2.74c0-.33,0-.8,0-1.4s0-1,0-1.34V48.76a7.46,7.46,0,0,0-.26-2.25,1.78,1.78,0,0,0-.7-1,4,4,0,0,0-1.32-.42,14,14,0,0,1-1.43-.34V43.44h9.28v1.29a3.93,3.93,0,0,0-3,1,4.38,4.38,0,0,0-.89,3.08V70.63h-1.7l-14.36-20q-1-1.34-2.58-4V63.69a15.06,15.06,0,0,0,.22,3,2.67,2.67,0,0,0,1.07,1.68,5,5,0,0,0,2.66.74v1.29h-9.6V69.09a4.29,4.29,0,0,0,3.13-1,4.86,4.86,0,0,0,.91-3.3V48a4,4,0,0,0-.45-2.16,1.92,1.92,0,0,0-1.21-.84,13.76,13.76,0,0,0-2.38-.23V43.44Z"/><path class="cls-3" d="M220.49,43l10.16,23.4a5.11,5.11,0,0,0,1.49,2,3.8,3.8,0,0,0,2.3.63v1.29H223.3V69.09h.9c1.56,0,2.33-.4,2.33-1.21a5,5,0,0,0-.32-1.45L224,61.26H213.31l-2.1,5.17a3.48,3.48,0,0,0-.33,1.13c0,1,.84,1.53,2.51,1.53h.88v1.29h-9.35V69.09a5.93,5.93,0,0,0,2.82-.54,4.1,4.1,0,0,0,1.61-2.12L219,43Zm2.73,16.54L219.76,51a33.45,33.45,0,0,1-1.13-3.23,4.73,4.73,0,0,0-.33,1L214,59.57Z"/><path class="cls-3" d="M243.15,43.44l13.16,18.23a20.48,20.48,0,0,1,1.52,2.74c0-.33,0-.8,0-1.4s0-1,0-1.34V48.76a7.15,7.15,0,0,0-.26-2.25,1.73,1.73,0,0,0-.7-1,4,4,0,0,0-1.32-.42,14.67,14.67,0,0,1-1.43-.34V43.44h9.28v1.29a3.93,3.93,0,0,0-3,1,4.43,4.43,0,0,0-.89,3.08V70.63h-1.7l-14.36-20q-1-1.34-2.58-4V63.69a15.88,15.88,0,0,0,.22,3,2.67,2.67,0,0,0,1.07,1.68,5.05,5.05,0,0,0,2.66.74v1.29h-9.6V69.09a4.29,4.29,0,0,0,3.13-1,4.81,4.81,0,0,0,.91-3.3V48a4,4,0,0,0-.45-2.16,1.92,1.92,0,0,0-1.21-.84,13.76,13.76,0,0,0-2.38-.23V43.44Z"/><path class="cls-3" d="M290.51,43.52l.4,9.68h-1.29a16.09,16.09,0,0,0-1.85-4.65,8.7,8.7,0,0,0-7.83-4.32,7.62,7.62,0,0,0-5.21,1.82,10.57,10.57,0,0,0-3,4.66,18.19,18.19,0,0,0-1,5.87,17.51,17.51,0,0,0,1.07,6.15,10.17,10.17,0,0,0,3.32,4.61,8.89,8.89,0,0,0,5.62,1.75,11,11,0,0,0,9.76-6.62L292,63.6a11.48,11.48,0,0,1-2.94,4,13.5,13.5,0,0,1-4.36,2.61,14.55,14.55,0,0,1-5,.89,14.21,14.21,0,0,1-5.47-1,12.61,12.61,0,0,1-4.33-2.91,13,13,0,0,1-2.78-4.43,15.31,15.31,0,0,1-1-5.51,15.74,15.74,0,0,1,1-5.53,14.07,14.07,0,0,1,2.8-4.63,12.62,12.62,0,0,1,4.36-3.15,13.24,13.24,0,0,1,5.5-1.13,15.12,15.12,0,0,1,8.71,2.73,12.54,12.54,0,0,0,.89-2Z"/><path class="cls-3" d="M305,70.38H292.92V69.09a14,14,0,0,0,2.42-.23,1.85,1.85,0,0,0,1.19-.84,4.12,4.12,0,0,0,.43-2.16V48a4.12,4.12,0,0,0-.43-2.16,1.85,1.85,0,0,0-1.19-.84,14,14,0,0,0-2.42-.23V43.44H305v1.29a6.53,6.53,0,0,0-3.07.56,1.4,1.4,0,0,0-.79,1A7.19,7.19,0,0,0,301,48v17.9a4.06,4.06,0,0,0,.44,2.15,1.9,1.9,0,0,0,1.21.85,13.76,13.76,0,0,0,2.38.23Z"/><path class="cls-3" d="M321.25,43l10.16,23.4a5.11,5.11,0,0,0,1.49,2,3.8,3.8,0,0,0,2.3.63v1.29H324.06V69.09h.9c1.56,0,2.33-.4,2.33-1.21a4.72,4.72,0,0,0-.32-1.45l-2.18-5.17H314.07L312,66.43a3.39,3.39,0,0,0-.32,1.13c0,1,.83,1.53,2.5,1.53H315v1.29h-9.35V69.09a5.93,5.93,0,0,0,2.82-.54,4,4,0,0,0,1.61-2.12L319.79,43ZM324,59.57,320.52,51c-.64-1.69-1-2.76-1.13-3.23a5.45,5.45,0,0,0-.33,1l-4.35,10.81Z"/><path class="cls-3" d="M358.52,62.07,358,70.38H335.92V69.09a14,14,0,0,0,2.42-.23,1.85,1.85,0,0,0,1.19-.84,4.12,4.12,0,0,0,.43-2.16V48a4,4,0,0,0-.45-2.16A1.92,1.92,0,0,0,338.3,45a13.76,13.76,0,0,0-2.38-.23V43.44H348v1.29a7.11,7.11,0,0,0-3.15.56,1.39,1.39,0,0,0-.72,1A7.26,7.26,0,0,0,344,48v17.5a3.23,3.23,0,0,0,1.05,2.78,5.25,5.25,0,0,0,3.14.77,24.08,24.08,0,0,0,3.37-.19,6.55,6.55,0,0,0,2.5-.91,6.09,6.09,0,0,0,2-2.21,8.44,8.44,0,0,0,1.29-3.63Z"/><path class="cls-3" d="M157.51,85.67h8.9v1.11c-.87.06-1.47.12-1.83.17a2.66,2.66,0,0,0-1,.41,1.51,1.51,0,0,0-.73,1,7.18,7.18,0,0,0-.15,1.6v11.84a11.48,11.48,0,0,1-1.66,6.69c-1.11,1.58-3.06,2.36-5.85,2.36a18.75,18.75,0,0,1-5.72-.69,5.15,5.15,0,0,1-3.06-2.61,12.4,12.4,0,0,1-1-5.6V89.72a3.81,3.81,0,0,0-.39-2,1.73,1.73,0,0,0-1.09-.76,12.06,12.06,0,0,0-2.2-.21V85.67h11v1.11l-1.28,0a3.45,3.45,0,0,0-1.25.27,1.7,1.7,0,0,0-.83.86,4,4,0,0,0-.32,1.77v11.77a24.23,24.23,0,0,0,.2,3.36,6.51,6.51,0,0,0,.82,2.45,4.1,4.1,0,0,0,1.86,1.64,7.71,7.71,0,0,0,3.22.57,6.27,6.27,0,0,0,3.74-1,4.87,4.87,0,0,0,1.82-2.65,14.68,14.68,0,0,0,.48-4V89.94a3.89,3.89,0,0,0-.4-2,2.14,2.14,0,0,0-1.16-.9,8.55,8.55,0,0,0-2.12-.31Z"/><path class="cls-3" d="M174.72,85.6l12,16.62a18.34,18.34,0,0,1,1.39,2.51c0-.31,0-.74,0-1.29s0-1,0-1.22V90.46a6.67,6.67,0,0,0-.24-2.06,1.66,1.66,0,0,0-.64-.93,3.52,3.52,0,0,0-1.2-.38,13,13,0,0,1-1.31-.31V85.6h8.46v1.18a3.58,3.58,0,0,0-2.71.86,4.06,4.06,0,0,0-.82,2.82v19.93H188l-13.1-18.24q-.9-1.22-2.35-3.69v15.6a14.49,14.49,0,0,0,.2,2.73,2.44,2.44,0,0,0,1,1.53,4.57,4.57,0,0,0,2.42.67v1.18h-8.75V109a3.86,3.86,0,0,0,2.85-1,4.42,4.42,0,0,0,.83-3V89.72a3.65,3.65,0,0,0-.41-2,1.72,1.72,0,0,0-1.1-.77,12,12,0,0,0-2.17-.21V85.6Z"/><path class="cls-3" d="M205.4,110.17h-11V109a12,12,0,0,0,2.2-.21,1.7,1.7,0,0,0,1.09-.77,3.74,3.74,0,0,0,.39-2V89.72a3.81,3.81,0,0,0-.39-2,1.73,1.73,0,0,0-1.09-.76,12,12,0,0,0-2.2-.21V85.6h11v1.18a6,6,0,0,0-2.79.51,1.27,1.27,0,0,0-.73.88,6.59,6.59,0,0,0-.16,1.55v16.33a3.65,3.65,0,0,0,.41,2,1.72,1.72,0,0,0,1.1.77,11.86,11.86,0,0,0,2.17.21Z"/><path class="cls-3" d="M220,110.61h-1.32L209.45,89.2A3.61,3.61,0,0,0,206,86.78V85.6h10.15v1.18h-.81c-1.42,0-2.14.36-2.14,1.1a4.75,4.75,0,0,0,.3,1.32l5.89,14.06c.45,1.16.79,2.12,1,2.86a3.34,3.34,0,0,0,.29-.81l6.48-16.11a3.77,3.77,0,0,0,.29-1.1,1,1,0,0,0-.66-1.07,4.78,4.78,0,0,0-1.69-.25h-.74V85.6h8.46v1.18h-.29a5.85,5.85,0,0,0-2.33.63,3.8,3.8,0,0,0-1.36,1.79Z"/><path class="cls-3" d="M251.68,85.6l.65,6h-1.1a8,8,0,0,0-1.68-3.52,4.15,4.15,0,0,0-3.24-1.26h-5.38v9.63h2.36c2.17,0,3.3-1.12,3.38-3.38h1.18v8.3h-1.18a6.13,6.13,0,0,0-.84-2.8,3.11,3.11,0,0,0-2.54-.8h-2.36v7.88a2.91,2.91,0,0,0,1,2.53,4.93,4.93,0,0,0,2.9.71,14.65,14.65,0,0,0,4.43-.54A5.17,5.17,0,0,0,252,105.9a9.23,9.23,0,0,0,1.1-3.31h1.1l-.51,7.58H233.57V109a12,12,0,0,0,2.2-.21,1.7,1.7,0,0,0,1.09-.77,3.74,3.74,0,0,0,.39-2V89.72a3.81,3.81,0,0,0-.39-2,1.73,1.73,0,0,0-1.09-.76,12,12,0,0,0-2.2-.21V85.6Z"/><path class="cls-3" d="M262.49,98.55v7.5a3.66,3.66,0,0,0,.4,2,1.72,1.72,0,0,0,1.1.77,12,12,0,0,0,2.17.21v1.18h-11V109a12.19,12.19,0,0,0,2.21-.21,1.66,1.66,0,0,0,1.08-.77,3.73,3.73,0,0,0,.4-2V89.72a3.65,3.65,0,0,0-.41-2,1.72,1.72,0,0,0-1.11-.77,11.76,11.76,0,0,0-2.17-.21V85.6h10.46q4.56,0,6.69,1.62a5.71,5.71,0,0,1,1.38,7.8,6.41,6.41,0,0,1-2.56,2.19,8.06,8.06,0,0,1-3.39.82,7,7,0,0,1,4,2,14.1,14.1,0,0,1,1.56,2l1.32,2,1.52,2.3a8,8,0,0,0,1.83,2,3.79,3.79,0,0,0,2.32.72v1.18h-5.6a12.16,12.16,0,0,1-2.28-2.78c-.69-1.13-1.5-2.47-2.43-4a23.16,23.16,0,0,0-2.49-3.55,3.85,3.85,0,0,0-2.95-1.25Zm0-1.18h3.16A4.69,4.69,0,0,0,269.41,96a6.18,6.18,0,0,0,1.16-4.09q0-5.15-5.44-5.14h-2.64Z"/><path class="cls-3" d="M295.59,85.37V92h-1.1a8,8,0,0,0-1.95-4.23,5.17,5.17,0,0,0-4-1.66,4.69,4.69,0,0,0-2,.43A3.79,3.79,0,0,0,285,87.75a3,3,0,0,0-.59,1.82,3.49,3.49,0,0,0,1.41,3,32.29,32.29,0,0,0,4.69,2.66,18.72,18.72,0,0,1,5,3.32,6.19,6.19,0,0,1,1.68,4.57,8.26,8.26,0,0,1-.93,3.9,7.09,7.09,0,0,1-2.6,2.8,7.23,7.23,0,0,1-3.84,1,10.25,10.25,0,0,1-6.69-2.72,7.54,7.54,0,0,0-.81,2.06H281.1v-7.72h1.17a8.53,8.53,0,0,0,1.16,3.26,7.55,7.55,0,0,0,2.42,2.54,5.67,5.67,0,0,0,3.19,1,7.06,7.06,0,0,0,2.68-.5,4.28,4.28,0,0,0,2-1.51,4.14,4.14,0,0,0,.74-2.48,4.2,4.2,0,0,0-1.57-3.47,25.62,25.62,0,0,0-4.77-2.78,20.12,20.12,0,0,1-4.84-3,5.36,5.36,0,0,1-1.63-4.16,5.91,5.91,0,0,1,.93-3.29,6.13,6.13,0,0,1,2.5-2.2,7.55,7.55,0,0,1,3.41-.77,7.83,7.83,0,0,1,5.44,1.84,5.26,5.26,0,0,0,.81-1.48Z"/><path class="cls-3" d="M310,110.17H299V109a12.06,12.06,0,0,0,2.2-.21,1.66,1.66,0,0,0,1.08-.77,3.63,3.63,0,0,0,.4-2V89.72a3.7,3.7,0,0,0-.4-2,1.68,1.68,0,0,0-1.08-.76,12.06,12.06,0,0,0-2.2-.21V85.6h11v1.18a6,6,0,0,0-2.79.51,1.32,1.32,0,0,0-.73.88,6.65,6.65,0,0,0-.15,1.55v16.33a3.65,3.65,0,0,0,.41,2,1.7,1.7,0,0,0,1.1.77A11.73,11.73,0,0,0,310,109Z"/><path class="cls-3" d="M328,110.17h-11V109a11.34,11.34,0,0,0,2.21-.22,1.68,1.68,0,0,0,1.09-.78,3.73,3.73,0,0,0,.39-1.94V86.85h-4.13a4,4,0,0,0-3.17,1.2,9.06,9.06,0,0,0-1.68,3.5H310.6l.65-6h22.59l.66,6h-1.1a14.66,14.66,0,0,0-1-2.5,4.3,4.3,0,0,0-1.48-1.6,4.48,4.48,0,0,0-2.44-.6h-4.11v19.2a3.69,3.69,0,0,0,.41,2,1.76,1.76,0,0,0,1.12.77A11.67,11.67,0,0,0,328,109Z"/><path class="cls-3" d="M348.63,99.2v6.85a3.46,3.46,0,0,0,.42,1.92,1.85,1.85,0,0,0,1.14.79,10.63,10.63,0,0,0,2.11.23v1.18H341.35V109a11.16,11.16,0,0,0,2.18-.22,1.77,1.77,0,0,0,1.1-.79,3.58,3.58,0,0,0,.4-1.93V99.2l-6.77-10.44a3.82,3.82,0,0,0-1.54-1.51,5.71,5.71,0,0,0-2.29-.47V85.6H345v1.18h-.95c-1.18,0-1.77.29-1.77.88a5.69,5.69,0,0,0,.37,1.1l5.22,9,5.51-9a2.17,2.17,0,0,0,.3-1c0-.43-.29-.71-.85-.84a12.32,12.32,0,0,0-2.54-.19V85.6h8.83v1.18a5.91,5.91,0,0,0-2.57.58,4.68,4.68,0,0,0-1.77,1.77Z"/><path class="cls-3" d="M143.9,120.65v4a1.94,1.94,0,0,1-.53,1.38,2.11,2.11,0,0,1-1.43.6h-.2a2.25,2.25,0,0,1-1.56-.53,1.88,1.88,0,0,1-.59-1.45v-4h.78v4a1.37,1.37,0,1,0,2.74,0v-4Z"/><path class="cls-3" d="M149.7,126.6h-.78l-3-4.59v4.59h-.79v-5.95h.79l3,4.6v-4.6h.78Z"/><path class="cls-3" d="M151.1,126.6v-5.95h1.67a2.72,2.72,0,0,1,1.38.34,2.42,2.42,0,0,1,.92,1,3.36,3.36,0,0,1,.33,1.45v.38a3.19,3.19,0,0,1-.33,1.48,2.27,2.27,0,0,1-.92,1,3,3,0,0,1-1.41.35Zm.78-5.31V126h.83a1.79,1.79,0,0,0,1.41-.56,2.37,2.37,0,0,0,.5-1.61v-.34a2.42,2.42,0,0,0-.47-1.58,1.73,1.73,0,0,0-1.35-.57Z"/><path class="cls-3" d="M159.94,123.85h-2.57V126h3v.65h-3.78v-5.95h3.74v.64h-2.95v1.92h2.57Z"/><path class="cls-3" d="M163.52,124.19h-1.4v2.41h-.79v-5.95h2a2.28,2.28,0,0,1,1.54.46,1.81,1.81,0,0,1,.25,2.3,1.77,1.77,0,0,1-.84.61l1.4,2.53v0h-.84Zm-1.4-.64h1.2a1.37,1.37,0,0,0,.93-.3,1.05,1.05,0,0,0,.35-.81,1.09,1.09,0,0,0-.33-.85,1.37,1.37,0,0,0-1-.3h-1.2Z"/><path class="cls-3" d="M172.5,121.29h-1.91v5.31h-.78v-5.31H167.9v-.64h4.6Z"/><path class="cls-3" d="M178,126.6h-.79v-2.75h-3v2.75h-.79v-5.95h.79v2.56h3v-2.56H178Z"/><path class="cls-3" d="M182.71,123.85h-2.58V126h3v.65h-3.78v-5.95h3.74v.64h-3v1.92h2.58Z"/><path class="cls-3" d="M190.56,125.82a1.8,1.8,0,0,1-.85.64,3.24,3.24,0,0,1-1.25.22,2.54,2.54,0,0,1-1.3-.34,2.35,2.35,0,0,1-.87-1,3.37,3.37,0,0,1-.31-1.46v-.52a3.15,3.15,0,0,1,.62-2.08,2.18,2.18,0,0,1,1.77-.74,2.25,2.25,0,0,1,1.49.47,2.11,2.11,0,0,1,.7,1.35h-.79a1.28,1.28,0,0,0-1.4-1.18,1.4,1.4,0,0,0-1.2.55,2.79,2.79,0,0,0-.41,1.61v.48a2.6,2.6,0,0,0,.46,1.6,1.5,1.5,0,0,0,1.24.59,2.94,2.94,0,0,0,.77-.1,1.33,1.33,0,0,0,.55-.33v-1.33H188.4v-.65h2.16Z"/><path class="cls-3" d="M196.44,123.81a3.76,3.76,0,0,1-.29,1.53,2.23,2.23,0,0,1-.84,1,2.29,2.29,0,0,1-3.34-1,3.46,3.46,0,0,1-.31-1.48v-.43a3.65,3.65,0,0,1,.3-1.52,2.24,2.24,0,0,1,.84-1,2.2,2.2,0,0,1,1.25-.35,2.33,2.33,0,0,1,1.26.34,2.31,2.31,0,0,1,.84,1,3.83,3.83,0,0,1,.29,1.53Zm-.78-.38a2.61,2.61,0,0,0-.43-1.62,1.5,1.5,0,0,0-2.35,0,2.57,2.57,0,0,0-.44,1.57v.43a2.69,2.69,0,0,0,.43,1.62,1.51,1.51,0,0,0,2.36,0,2.66,2.66,0,0,0,.43-1.59Z"/><path class="cls-3" d="M199.49,125.55l1.7-4.9h.86l-2.2,5.95h-.7l-2.2-5.95h.85Z"/><path class="cls-3" d="M206.21,123.85h-2.58V126h3v.65h-3.78v-5.95h3.73v.64h-3v1.92h2.58Z"/><path class="cls-3" d="M209.78,124.19h-1.39v2.41h-.79v-5.95h2a2.28,2.28,0,0,1,1.54.46,1.64,1.64,0,0,1,.54,1.33,1.62,1.62,0,0,1-.3,1,1.79,1.79,0,0,1-.83.61l1.39,2.53v0h-.84Zm-1.39-.64h1.2a1.37,1.37,0,0,0,.93-.3,1,1,0,0,0,.34-.81,1.12,1.12,0,0,0-.32-.85,1.37,1.37,0,0,0-.95-.3h-1.2Z"/><path class="cls-3" d="M217.32,126.6h-.79l-3-4.59v4.59h-.79v-5.95h.79l3,4.6v-4.6h.78Z"/><path class="cls-3" d="M219.73,120.65l1.94,4.85,1.94-4.85h1v5.95h-.78v-2.32l.07-2.5L222,126.6h-.6l-2-4.81.08,2.49v2.32h-.79v-5.95Z"/><path class="cls-3" d="M229.38,123.85H226.8V126h3v.65H226v-5.95h3.73v.64H226.8v1.92h2.58Z"/><path class="cls-3" d="M235.34,126.6h-.79l-3-4.59v4.59h-.79v-5.95h.79l3,4.6v-4.6h.78Z"/><path class="cls-3" d="M240.72,121.29h-1.91v5.31H238v-5.31h-1.91v-.64h4.6Z"/><path class="cls-3" d="M248.08,123.81a3.6,3.6,0,0,1-.29,1.53,2.21,2.21,0,0,1-.83,1,2.3,2.3,0,0,1-3.35-1,3.62,3.62,0,0,1-.31-1.48v-.43a3.65,3.65,0,0,1,.3-1.52,2.31,2.31,0,0,1,.84-1,2.22,2.22,0,0,1,1.25-.35,2.18,2.18,0,0,1,2.1,1.34,3.67,3.67,0,0,1,.29,1.53Zm-.78-.38a2.67,2.67,0,0,0-.42-1.62,1.51,1.51,0,0,0-2.36,0,2.64,2.64,0,0,0-.44,1.57v.43a2.76,2.76,0,0,0,.43,1.62,1.4,1.4,0,0,0,1.19.58,1.39,1.39,0,0,0,1.18-.55,2.66,2.66,0,0,0,.42-1.59Z"/><path class="cls-3" d="M252.54,124H250v2.63h-.78v-5.95h3.68v.64H250v2h2.5Z"/><path class="cls-3" d="M259.9,121.29H258v5.31h-.78v-5.31H255.3v-.64h4.6Z"/><path class="cls-3" d="M265.35,126.6h-.79v-2.75h-3v2.75h-.79v-5.95h.79v2.56h3v-2.56h.79Z"/><path class="cls-3" d="M270.1,123.85h-2.57V126h3v.65h-3.78v-5.95h3.74v.64h-3v1.92h2.57Z"/><path class="cls-3" d="M275.75,124.19h-1.4v2.41h-.79v-5.95h2a2.31,2.31,0,0,1,1.55.46,1.64,1.64,0,0,1,.54,1.33,1.62,1.62,0,0,1-.3,1,1.77,1.77,0,0,1-.84.61l1.4,2.53v0H277Zm-1.4-.64h1.21a1.37,1.37,0,0,0,.93-.3,1,1,0,0,0,.34-.81,1.09,1.09,0,0,0-.33-.85,1.35,1.35,0,0,0-.95-.3h-1.2Z"/><path class="cls-3" d="M282.9,120.65v4a1.94,1.94,0,0,1-.52,1.38,2.13,2.13,0,0,1-1.43.6h-.21a2.21,2.21,0,0,1-1.55-.53,1.85,1.85,0,0,1-.59-1.45v-4h.78v4a1.37,1.37,0,1,0,2.74,0v-4Z"/><path class="cls-3" d="M285.89,123.94a3.72,3.72,0,0,1-1.47-.71,1.37,1.37,0,0,1-.45-1,1.41,1.41,0,0,1,.56-1.16,2.2,2.2,0,0,1,1.46-.46,2.53,2.53,0,0,1,1.09.23,1.76,1.76,0,0,1,.74.66,1.64,1.64,0,0,1,.27.91h-.79a1.11,1.11,0,0,0-.34-.85,1.4,1.4,0,0,0-1-.31,1.45,1.45,0,0,0-.91.25.87.87,0,0,0-.32.71.76.76,0,0,0,.31.62,2.9,2.9,0,0,0,1.05.46,4.89,4.89,0,0,1,1.16.46,1.86,1.86,0,0,1,.62.59,1.51,1.51,0,0,1,.2.78,1.39,1.39,0,0,1-.56,1.16,2.42,2.42,0,0,1-1.51.44,2.79,2.79,0,0,1-1.15-.24,1.87,1.87,0,0,1-.81-.64,1.51,1.51,0,0,1-.29-.93h.79a1,1,0,0,0,.39.85A1.68,1.68,0,0,0,286,126a1.53,1.53,0,0,0,1-.26.83.83,0,0,0,.33-.69.79.79,0,0,0-.31-.67A3.5,3.5,0,0,0,285.89,123.94Z"/><path class="cls-3" d="M290.86,123.94a3.58,3.58,0,0,1-1.47-.71,1.35,1.35,0,0,1-.46-1,1.43,1.43,0,0,1,.56-1.16,2.2,2.2,0,0,1,1.46-.46,2.53,2.53,0,0,1,1.09.23,1.86,1.86,0,0,1,.75.66,1.72,1.72,0,0,1,.26.91h-.79a1.07,1.07,0,0,0-.34-.85,1.38,1.38,0,0,0-1-.31,1.45,1.45,0,0,0-.91.25.87.87,0,0,0-.32.71.76.76,0,0,0,.31.62,2.9,2.9,0,0,0,1.05.46,4.89,4.89,0,0,1,1.16.46,1.77,1.77,0,0,1,.62.59,1.51,1.51,0,0,1,.2.78,1.39,1.39,0,0,1-.56,1.16,2.42,2.42,0,0,1-1.51.44,2.71,2.71,0,0,1-1.14-.24,1.84,1.84,0,0,1-.82-.64,1.58,1.58,0,0,1-.29-.93h.79a1,1,0,0,0,.4.85A1.65,1.65,0,0,0,291,126a1.53,1.53,0,0,0,.95-.26.83.83,0,0,0,.33-.69.81.81,0,0,0-.3-.67A3.74,3.74,0,0,0,290.86,123.94Z"/><path class="cls-3" d="M294.91,126.6h-.79v-5.95h.79Z"/><path class="cls-3" d="M299.7,125h-2.49l-.56,1.56h-.81l2.27-5.95h.68l2.28,5.95h-.81Zm-2.26-.64h2l-1-2.78Z"/><path class="cls-3" d="M306.44,126.6h-.79l-3-4.59v4.59h-.79v-5.95h.79l3,4.6v-4.6h.78Z"/><path class="cls-3" d="M313.18,124h-2.49v2.63h-.79v-5.95h3.69v.64h-2.9v2h2.49Z"/><path class="cls-3" d="M317.89,123.85h-2.58V126h3v.65h-3.77v-5.95h3.73v.64h-2.95v1.92h2.58Z"/><path class="cls-3" d="M319.28,126.6v-5.95H321a2.7,2.7,0,0,1,1.37.34,2.35,2.35,0,0,1,.92,1,3.1,3.1,0,0,1,.33,1.45v.38a3.19,3.19,0,0,1-.33,1.48,2.27,2.27,0,0,1-.92,1,3,3,0,0,1-1.41.35Zm.78-5.31V126h.83a1.79,1.79,0,0,0,1.41-.56,2.32,2.32,0,0,0,.5-1.61v-.34a2.42,2.42,0,0,0-.47-1.58,1.73,1.73,0,0,0-1.35-.57Z"/><path class="cls-3" d="M328.12,123.85h-2.57V126h3v.65h-3.78v-5.95h3.74v.64h-2.95v1.92h2.57Z"/><path class="cls-3" d="M331.7,124.19h-1.4v2.41h-.79v-5.95h2a2.31,2.31,0,0,1,1.55.46,1.64,1.64,0,0,1,.54,1.33,1.62,1.62,0,0,1-.3,1,1.77,1.77,0,0,1-.84.61l1.4,2.53v0H333Zm-1.4-.64h1.21a1.37,1.37,0,0,0,.93-.3,1,1,0,0,0,.34-.81,1.09,1.09,0,0,0-.33-.85,1.35,1.35,0,0,0-.95-.3h-1.2Z"/><path class="cls-3" d="M338,125h-2.49l-.56,1.56h-.81l2.27-5.95h.69l2.27,5.95h-.8Zm-2.25-.64h2l-1-2.78Z"/><path class="cls-3" d="M343.71,121.29h-1.92v5.31H341v-5.31h-1.9v-.64h4.6Z"/><path class="cls-3" d="M345.43,126.6h-.79v-5.95h.79Z"/><path class="cls-3" d="M351.43,123.81a3.6,3.6,0,0,1-.29,1.53,2.15,2.15,0,0,1-.83,1,2.3,2.3,0,0,1-3.35-1,3.62,3.62,0,0,1-.31-1.48v-.43a3.65,3.65,0,0,1,.3-1.52,2.31,2.31,0,0,1,.84-1,2.22,2.22,0,0,1,1.25-.35,2.29,2.29,0,0,1,1.26.34,2.18,2.18,0,0,1,.84,1,3.67,3.67,0,0,1,.29,1.53Zm-.77-.38a2.67,2.67,0,0,0-.43-1.62,1.51,1.51,0,0,0-2.36,0,2.64,2.64,0,0,0-.44,1.57v.43a2.76,2.76,0,0,0,.43,1.62,1.4,1.4,0,0,0,1.19.58,1.39,1.39,0,0,0,1.18-.55,2.74,2.74,0,0,0,.43-1.59Z"/><path class="cls-3" d="M357.18,126.6h-.79l-3-4.59v4.59h-.79v-5.95h.79l3,4.6v-4.6h.78Z"/><path class="cls-4" d="M3.93,126.86C35.62,122.42,67.54,109,90.79,83.25h0c-2.48,9.16-16,32.49-29,43.61H3.93Z"/><path class="cls-5" d="M44,119.62h0l-.84.43-.13-.47,1.06-.53h.55v4.52H44Z"/><path class="cls-5" d="M46.8,123.14a2.42,2.42,0,0,0,.52,0,1.88,1.88,0,0,0,1-.44,2,2,0,0,0,.64-1.2h0a1.5,1.5,0,0,1-1.14.49,1.35,1.35,0,0,1-1.43-1.39A1.61,1.61,0,0,1,48,119c1,0,1.6.76,1.6,1.91a2.76,2.76,0,0,1-.83,2.12,2.58,2.58,0,0,1-1.41.61,3.36,3.36,0,0,1-.6,0Zm.23-2.6a.9.9,0,0,0,.93,1,1.12,1.12,0,0,0,1-.47.39.39,0,0,0,.06-.23c0-.77-.31-1.36-1-1.36A1,1,0,0,0,47,120.54Z"/><path class="cls-5" d="M51.65,119.62h0l-.84.43-.13-.47,1.06-.53h.56v4.52h-.64Z"/><path class="cls-5" d="M54.43,123.14a2.53,2.53,0,0,0,.53,0,1.85,1.85,0,0,0,1-.44,2,2,0,0,0,.64-1.2h0a1.5,1.5,0,0,1-1.14.49A1.36,1.36,0,0,1,54,120.58,1.61,1.61,0,0,1,55.67,119c1,0,1.6.76,1.6,1.91a2.76,2.76,0,0,1-.83,2.12,2.54,2.54,0,0,1-1.41.61,3.36,3.36,0,0,1-.6,0Zm.24-2.6a.9.9,0,0,0,.93,1,1.1,1.1,0,0,0,.95-.47.39.39,0,0,0,.06-.23c0-.77-.31-1.36-1-1.36A1,1,0,0,0,54.67,120.54Z"/></svg>